# xmcd
#
# Track frame offsets:
#	150
#	23938
#	43495
#	57446
#	72820
#	94761
#	109379
#	122709
#	133726
#	148657
#	161564
#	175370
#	192517
#	205469
#	222155
#	237987
#	251650
#	267075
#	280021
#	294198
#
# Disc length: 4143 seconds
#
# Revision: 8
# Processed by: cddbd v1.5.2PL0 Copyright (c) Steve Scherf et al.
# Submitted via: EasyCDDAExtractor 10.2.0.1
#
DISCID=40102d14
DTITLE=David Allan Coe - For The Record - The First 10 Years
DYEAR=1985
DGENRE=Country
TTITLE0=You Never Even Called Me By My Name
TTITLE1=Please Come To Boston
TTITLE2=Jody Like A Melody
TTITLE3=Longhaired Redneck
TTITLE4=If That Ain't Country
TTITLE5=Willie, Waylon And Me
TTITLE6=Take This Job And Shove It
TTITLE7=Just To Prove My Love For You
TTITLE8=Jack Daniels, If You Please
TTITLE9=Would You Lay With Me (In A Field Of Stone)
TTITLE10=Divers Do It Deeper
TTITLE11=X's And O's (Kisses And Hugs)
TTITLE12=This Bottle (In My Hand) (With George Jones)
TTITLE13=Get A Little Dirt On (With Bill Anderson)
TTITLE14=Stand By Your Man
TTITLE15=Tennessee Whiskey
TTITLE16=Now I Lay Me Down To Cheat
TTITLE17=What Made You Change Your Mind
TTITLE18=The Ride
TTITLE19=Mona Lisa Lost Her Smile
EXTD=
EXTT0=
EXTT1=
EXTT2=
EXTT3=
EXTT4=
EXTT5=
EXTT6=
EXTT7=
EXTT8=
EXTT9=
EXTT10=
EXTT11=
EXTT12=
EXTT13=
EXTT14=
EXTT15=
EXTT16=
EXTT17=
EXTT18=
EXTT19=
PLAYORDER=
